<svg width="162" height="41" viewBox="0 0 162 41" fill="none" xmlns="http://www.w3.org/2000/svg">
<path d="M56.9501 9.8783L60.5144 20.448L64.0704 9.8783H66.9913L69.4551 26.2134H66.8135L65.1202 15.2887L61.9284 24.6378H59.1005L55.9256 15.2541L54.2323 26.1787H51.54L54.0291 9.8783H56.9501Z" fill="white"/>
<path d="M80.4869 16.0071C81.0369 16.5769 81.4701 17.2532 81.7609 17.9965C82.0517 18.7398 82.1942 19.535 82.1802 20.3355C82.1942 21.1359 82.0517 21.9311 81.7609 22.6744C81.4701 23.4177 81.0369 24.0941 80.4869 24.6638C79.9551 25.2301 79.3169 25.6808 78.6105 25.9886C77.9042 26.2964 77.1442 26.4551 76.3764 26.4551C75.6086 26.4551 74.8486 26.2964 74.1423 25.9886C73.4359 25.6808 72.7977 25.2301 72.2659 24.6638C71.7182 24.0923 71.2865 23.4157 70.9959 22.6728C70.7053 21.9299 70.5614 21.1355 70.5726 20.3355C70.5614 19.5354 70.7053 18.741 70.9959 17.9981C71.2865 17.2553 71.7182 16.5786 72.2659 16.0071C72.8001 15.4451 73.4391 14.9984 74.1452 14.6933C74.8512 14.3882 75.6099 14.231 76.3764 14.231C77.1429 14.231 77.9016 14.3882 78.6076 14.6933C79.3137 14.9984 79.9527 15.4451 80.4869 16.0071ZM74.1116 17.8943C73.5379 18.5723 73.2221 19.4389 73.2221 20.3355C73.2221 21.232 73.5379 22.0986 74.1116 22.7766C74.4021 23.0916 74.7524 23.3425 75.1412 23.514C75.5299 23.6855 75.9488 23.7739 76.3722 23.7739C76.7955 23.7739 77.2144 23.6855 77.6032 23.514C77.9919 23.3425 78.3422 23.0916 78.6327 22.7766C79.2064 22.0986 79.5222 21.232 79.5222 20.3355C79.5222 19.4389 79.2064 18.5723 78.6327 17.8943C78.3391 17.5849 77.9878 17.3389 77.5995 17.1709C77.2111 17.0029 76.7938 16.9163 76.3722 16.9163C75.9505 16.9163 75.5332 17.0029 75.1449 17.1709C74.7566 17.3389 74.4052 17.5849 74.1116 17.8943Z" fill="white"/>
<path d="M84.39 9.8783H87.0146V19.063L91.1885 14.5096H94.7275L90.2572 19.4006L94.9307 26.1441H91.6881L88.4539 21.4089L87.0146 22.9931V26.1441H84.39V9.8783Z" fill="white"/>
<path d="M99.1554 9.8783V26.1787H96.5308V9.8783H99.1554Z" fill="white"/>
<path d="M104.337 21.5128C104.411 21.8662 104.534 22.2071 104.701 22.5256C104.875 22.8482 105.098 23.1405 105.361 23.3913C105.906 23.9058 106.626 24.1822 107.368 24.1617C107.942 24.1819 108.515 24.0999 109.061 23.9193C109.527 23.7476 109.961 23.499 110.348 23.1835L111.787 24.9148C111.203 25.4385 110.524 25.8413 109.789 26.1008C109.017 26.3467 108.211 26.4665 107.402 26.4557C106.613 26.4755 105.829 26.3263 105.1 26.0177C104.371 25.7091 103.713 25.2479 103.169 24.6638C102.614 24.0973 102.178 23.4215 101.887 22.6775C101.596 21.9334 101.456 21.1366 101.475 20.3355C101.46 19.5349 101.602 18.7392 101.893 17.9957C102.183 17.2522 102.617 16.576 103.169 16.0072C103.699 15.4377 104.342 14.9891 105.054 14.6908C105.766 14.3924 106.531 14.2511 107.3 14.2758C108.034 14.2529 108.764 14.3963 109.437 14.6956C110.11 14.9949 110.711 15.4428 111.195 16.0072C112.234 17.2344 112.781 18.8173 112.727 20.4394V21.5388L104.337 21.5128ZM105.336 17.4701C104.779 17.9707 104.408 18.6526 104.286 19.4006H109.993C109.892 18.6641 109.566 17.9792 109.061 17.4442C108.823 17.208 108.54 17.024 108.23 16.9035C107.92 16.7829 107.589 16.7283 107.258 16.743C106.553 16.7417 105.87 16.9998 105.336 17.4701Z" fill="white"/>
<path d="M118.239 10.8738V14.5096H121.363V17.1672H118.239V21.1319C118.248 21.7604 118.498 22.3601 118.935 22.8021C119.372 23.2441 119.961 23.493 120.576 23.4952H121.346V26.1788H120.576C119.265 26.1765 118.008 25.6449 117.079 24.6997C116.15 23.7544 115.623 22.4721 115.614 21.1319V17.1672H113.743V14.5096H115.614V10.8738H118.239Z" fill="white"/>
<path d="M126.045 25.9882C125.891 26.1536 125.706 26.2849 125.501 26.3743C125.295 26.4636 125.074 26.509 124.851 26.5076C124.626 26.5078 124.403 26.462 124.195 26.3728C123.987 26.2836 123.798 26.1529 123.641 25.9882C123.479 25.8335 123.35 25.6456 123.264 25.4368C123.178 25.228 123.136 25.0029 123.141 24.7763C123.141 24.3171 123.319 23.8768 123.637 23.5521C123.955 23.2274 124.385 23.045 124.834 23.045C125.283 23.0469 125.712 23.2306 126.028 23.5557C126.188 23.7178 126.314 23.9108 126.4 24.1233C126.485 24.3358 126.529 24.5637 126.528 24.7936C126.529 25.0156 126.487 25.2357 126.405 25.4409C126.322 25.646 126.199 25.8322 126.045 25.9882Z" fill="white"/>
<path d="M138.355 16.0071C138.903 16.5786 139.335 17.2553 139.625 17.9981C139.916 18.741 140.06 19.5354 140.049 20.3355C140.06 21.1355 139.916 21.9299 139.625 22.6728C139.335 23.4157 138.903 24.0923 138.355 24.6638C137.824 25.2301 137.185 25.6808 136.479 25.9886C135.773 26.2964 135.013 26.4551 134.245 26.4551C133.477 26.4551 132.717 26.2964 132.011 25.9886C131.304 25.6808 130.666 25.2301 130.134 24.6638C129.587 24.0923 129.155 23.4157 128.864 22.6728C128.574 21.9299 128.43 21.1355 128.441 20.3355C128.43 19.5354 128.574 18.741 128.864 17.9981C129.155 17.2553 129.587 16.5786 130.134 16.0071C130.669 15.4451 131.308 14.9984 132.014 14.6933C132.72 14.3882 133.478 14.231 134.245 14.231C135.011 14.231 135.77 14.3882 136.476 14.6933C137.182 14.9984 137.821 15.4451 138.355 16.0071ZM131.988 17.8943C131.41 18.5699 131.091 19.4374 131.091 20.3355C131.091 21.2335 131.41 22.101 131.988 22.7766C132.278 23.0913 132.628 23.3421 133.016 23.5135C133.404 23.6849 133.822 23.7733 134.245 23.7733C134.668 23.7733 135.086 23.6849 135.474 23.5135C135.862 23.3421 136.211 23.0913 136.501 22.7766C137.08 22.101 137.399 21.2335 137.399 20.3355C137.399 19.4374 137.08 18.5699 136.501 17.8943C136.208 17.5851 135.858 17.3393 135.47 17.1714C135.082 17.0035 134.666 16.917 134.245 16.917C133.824 16.917 133.407 17.0035 133.02 17.1714C132.632 17.3393 132.281 17.5851 131.988 17.8943Z" fill="white"/>
<path d="M144.739 14.5096V16.1457L144.908 15.9553L145.078 15.7735C145.452 15.4052 145.874 15.0907 146.331 14.8386C147.129 14.4205 148.016 14.2123 148.913 14.2326V16.9162C147.921 16.8967 146.956 17.2441 146.195 17.8944C145.846 18.2279 145.559 18.6239 145.349 19.063C145.113 19.5359 144.967 20.0497 144.917 20.5779V26.1788H142.292V14.5096H144.739Z" fill="white"/>
<path d="M158.887 15.5138C158.962 15.5741 159.031 15.6439 159.09 15.7215L159.276 15.9553V14.5096H161.647V24.8976C161.666 25.7798 161.534 26.6587 161.257 27.4946C161.014 28.2304 160.619 28.9038 160.097 29.4683C159.593 30.0184 158.978 30.4497 158.294 30.7321C157.564 31.0173 156.789 31.1583 156.008 31.1477C155.299 31.1598 154.59 31.1019 153.891 30.9745C153.363 30.8804 152.849 30.7205 152.359 30.4984C151.954 30.3016 151.564 30.076 151.191 29.8232L152.401 27.6504C152.896 28.0055 153.446 28.2746 154.027 28.4468C154.637 28.6113 155.267 28.69 155.898 28.6805C156.338 28.711 156.779 28.6334 157.184 28.4542C157.589 28.275 157.946 27.9994 158.226 27.6504C158.438 27.3525 158.609 27.0263 158.734 26.6808C158.871 26.3127 158.945 25.9233 158.954 25.5295V25.2785C158.947 25.1978 158.947 25.1167 158.954 25.0361C158.905 25.0787 158.863 25.1283 158.827 25.1832C158.792 25.2406 158.749 25.293 158.7 25.3391C157.878 26.1009 156.795 26.5019 155.686 26.4558C154.931 26.4803 154.179 26.3384 153.483 26.0397C152.786 25.7409 152.16 25.2924 151.648 24.7244C150.586 23.5479 150.013 21.9963 150.048 20.3961C150.015 18.7964 150.589 17.2458 151.648 16.0678C152.159 15.499 152.785 15.0498 153.482 14.751C154.179 14.4522 154.931 14.3108 155.686 14.3365C156.27 14.2958 156.856 14.3794 157.407 14.5821C157.958 14.7847 158.462 15.102 158.887 15.5138ZM153.637 17.8944C153.039 18.5609 152.72 19.4402 152.748 20.3442C152.711 21.2705 153.03 22.175 153.637 22.8633C153.928 23.184 154.282 23.4373 154.676 23.606C155.071 23.7748 155.496 23.8551 155.923 23.8415C156.339 23.8548 156.753 23.774 157.135 23.6049C157.517 23.4358 157.858 23.1826 158.133 22.8633C158.412 22.5313 158.636 22.1538 158.793 21.7466C158.951 21.3118 159.028 20.851 159.022 20.3875C159.027 19.9325 158.949 19.4805 158.793 19.0544C158.636 18.6471 158.412 18.2697 158.133 17.9376C157.862 17.6117 157.522 17.3523 157.14 17.1785C156.757 17.0047 156.342 16.9209 155.923 16.9335C155.497 16.9154 155.072 16.9919 154.677 17.1578C154.283 17.3237 153.928 17.575 153.637 17.8944Z" fill="white"/>
<path d="M18.9101 17.1326L17.3946 21.9024L14.9986 20.1278L13.4831 19.0024C13.3136 18.8725 13.1881 18.6917 13.1241 18.4852C13.06 18.2788 13.0607 18.057 13.126 17.851C13.1913 17.6449 13.318 17.4649 13.4883 17.3361C13.6586 17.2073 13.864 17.1361 14.0758 17.1326H18.9101Z" fill="#FAFAFA"/>
<path d="M16.8105 23.729L17.3946 21.9024L21.3654 24.8457L20.1716 25.7113L17.4539 27.7629C17.2818 27.8903 17.0747 27.9588 16.8622 27.9586C16.6497 27.9583 16.4428 27.8894 16.2709 27.7617C16.099 27.634 15.971 27.454 15.9052 27.2474C15.8394 27.0409 15.8392 26.8183 15.9045 26.6116L16.8105 23.729Z" fill="#FAFAFA"/>
<path d="M23.3297 15.5916L23.8207 17.1325H18.9102L19.4012 15.5916L20.4087 12.4753C20.4629 12.252 20.5886 12.0536 20.7658 11.9119C20.9431 11.7701 21.1616 11.6931 21.3866 11.6931C21.6116 11.6931 21.8301 11.7701 22.0074 11.9119C22.1846 12.0536 22.3103 12.252 22.3645 12.4753L23.3297 15.5916Z" fill="#FAFAFA"/>
<path d="M26.0558 24.1704L26.8263 26.6116C26.8916 26.8183 26.8914 27.0408 26.8256 27.2474C26.7598 27.4539 26.6318 27.634 26.4599 27.7617C26.2881 27.8894 26.0811 27.9583 25.8686 27.9585C25.6562 27.9587 25.4491 27.8903 25.2769 27.7629L23.1349 26.1614L21.3654 24.8543L25.3362 21.911L26.0558 24.1704Z" fill="#FAFAFA"/>
<path d="M26.5977 20.9934L25.3362 21.911L23.8207 17.1326H28.655C28.8672 17.1332 29.0738 17.2022 29.2454 17.3299C29.4169 17.4577 29.5446 17.6375 29.6103 17.8438C29.676 18.0501 29.6763 18.2723 29.6112 18.4788C29.5461 18.6853 29.4189 18.8655 29.2477 18.9937L26.5977 20.9934Z" fill="#FAFAFA"/>
<path d="M14.1604 40.3842C14.1604 40.3842 16.2686 36.4455 19.4774 35.1123L21.3654 31.2515L23.2534 35.1123C26.4622 36.4455 28.5789 40.3842 28.5789 40.3842C31.0257 31.4073 25.0483 29.65 25.0483 29.65L25.3701 33.3637L21.3654 27.5032L17.3608 33.3637L17.6825 29.65C17.6825 29.65 11.7136 31.4073 14.1604 40.3842Z" fill="#FAFAFA"/>
<path d="M21.3654 40.6439C22.5998 40.6439 23.6006 39.6208 23.6006 38.3586C23.6006 37.0964 22.5998 36.0732 21.3654 36.0732C20.131 36.0732 19.1302 37.0964 19.1302 38.3586C19.1302 39.6208 20.131 40.6439 21.3654 40.6439Z" fill="#FAFAFA"/>
<path d="M39.0265 9.01265C39.0265 9.01265 35.0642 10.9431 31.6776 10.0861L27.927 12.0857L28.6212 7.81803C26.8094 4.81418 27.3597 0.356018 27.3597 0.356018C20.2225 6.15596 24.0578 11.1595 24.0578 11.1595L25.9289 7.95654L25.8019 15.1156L32.4142 12.7783L29.9843 15.5917C29.9843 15.5917 35.8431 17.7558 39.0265 9.01265Z" fill="#FAFAFA"/>
<path d="M32.0248 8.62313C33.2592 8.62313 34.2599 7.59994 34.2599 6.33778C34.2599 5.07561 33.2592 4.05243 32.0248 4.05243C30.7903 4.05243 29.7896 5.07561 29.7896 6.33778C29.7896 7.59994 30.7903 8.62313 32.0248 8.62313Z" fill="#FAFAFA"/>
<path d="M15.3712 0.356018C15.3712 0.356018 15.93 4.81418 14.0927 7.81803L14.787 12.0857L11.0363 10.0861C7.6836 10.9431 3.73822 9.01265 3.73822 9.01265C6.88775 17.7558 12.7296 15.5917 12.7296 15.5917L10.3336 12.7783L16.9459 15.1156L16.8189 7.95654L18.69 11.1595C18.69 11.1595 22.5084 6.15596 15.3712 0.356018Z" fill="#FAFAFA"/>
<path d="M10.7062 8.62313C11.9406 8.62313 12.9413 7.59994 12.9413 6.33778C12.9413 5.07561 11.9406 4.05243 10.7062 4.05243C9.47172 4.05243 8.47101 5.07561 8.47101 6.33778C8.47101 7.59994 9.47172 8.62313 10.7062 8.62313Z" fill="#FAFAFA"/>
<path d="M37.9259 33.9351C37.9259 33.9351 34.9118 30.6543 34.6663 27.131L31.6776 24.1012L35.86 23.4606C38.0867 20.7511 42.4046 19.9114 42.4046 19.9114C34.7848 14.7607 31.3389 20.0239 31.3389 20.0239L34.8864 20.8896L28.1979 22.9672L32.4311 28.6805L29.0445 27.2176C29.0445 27.2176 28.8159 33.5369 37.9259 33.9351Z" fill="#FAFAFA"/>
<path d="M38.2646 28.5852C39.499 28.5852 40.4997 27.562 40.4997 26.2999C40.4997 25.0377 39.499 24.0145 38.2646 24.0145C37.0301 24.0145 36.0294 25.0377 36.0294 26.2999C36.0294 27.562 37.0301 28.5852 38.2646 28.5852Z" fill="#FAFAFA"/>
<path d="M0.351624 19.9113C0.351624 19.9113 4.66953 20.777 6.89621 23.4605L11.0787 24.1011L8.06459 27.1309C7.82753 30.6542 4.80499 33.9351 4.80499 33.9351C13.898 33.5368 13.7033 27.1915 13.7033 27.1915L10.3167 28.6545L14.5499 22.9411L7.85293 20.8635L11.4088 19.9979C11.4088 19.9979 7.97146 14.7606 0.351624 19.9113Z" fill="#FAFAFA"/>
<path d="M4.46629 28.5852C5.70073 28.5852 6.70144 27.562 6.70144 26.2999C6.70144 25.0377 5.70073 24.0145 4.46629 24.0145C3.23185 24.0145 2.23114 25.0377 2.23114 26.2999C2.23114 27.562 3.23185 28.5852 4.46629 28.5852Z" fill="#FAFAFA"/>
</svg>
